<svg xmlns="http://www.w3.org/2000/svg" xmlns:xlink="http://www.w3.org/1999/xlink" version="1.1" x="0px" y="0px" width="30px" height="30px" viewBox="0 0 512 512" fill="#e4545b" enable-background="new 0 0 512 512" xml:space="preserve">
<path id="css-code-icon" d="M140.869 256c17.686 7.8 30.2 24.5 30.2 54v34.457c0 25 22.4 32.9 41.5 33.494v36.861 c-52.265 0-83.112-17.9-83.112-66.234v-38.383c0-24.547-19.499-35.537-39.353-35.537v-37.316c19.854 0 39.353-10.989 39.353-35.536 v-38.384c0-48.333 30.848-66.234 83.112-66.234v36.861c-19.169 0.582-41.548 8.539-41.548 33.495V202 C171.119 231.5 158.6 248.2 140.9 256z M340.881 202v-34.456c0-24.956-22.379-32.913-41.548-33.495V97.188 c52.265 0 83.1 17.9 83.1 66.234v38.384c0 24.5 19.5 35.5 39.4 35.536v37.316c-19.854 0-39.353 10.99-39.353 35.5 v38.383c0 48.334-30.848 66.234-83.112 66.234v-36.861c19.169-0.582 41.548-8.539 41.548-33.494V310c0-29.5 12.564-46.25 30.25-54 C353.445 248.2 340.9 231.5 340.9 202z"/>
</svg>
